# xmcd CD database file
#
# Track frame offsets:
#	150
#	3652
#	26970
#	50005
#	62147
#	78747
#	115915
#	135835
#	148552
#	165547
#	190945
#	216965
#
# Disc length: 3194 seconds
#
# Revision: 2
# Processed by: cddbd v1.4b41PL1 Copyright (c) Steve Scherf et al.
# Submitted via: Feurio! 1.51.9ß - http://www.feurio.com
#
DISCID=ad0c780c
DTITLE=Ensemble FisFüz - SimSim
DYEAR=1900
DGENRE=
TTITLE0=Intro (M.Coskum)
TTITLE1=Bosphorus Winds (M.Coskum)
TTITLE2=Dream of the Blue Carpet (M.Coskum)
TTITLE3=Kantemir's Drag (P.D.Kantemir/Esemble FisFüz)
TTITLE4=Balcano (A.Maye)
TTITLE5=Aneva sto trapezi moi (trad./arr.Ensemble FisFüz)
TTITLE6=Tokar (trad./arr.Ensemble FisFüz)
TTITLE7=Kiziroglu Mustafa (trad./arr.M. Coskum)
TTITLE8=Mopuse in the street (A.Maye)
TTITLE9=Samai Husseyni (Tatios Efendi /ar.. Ensemble FisFüz)
TTITLE10=Bonsai (A.Maye)
TTITLE11=Ghosts on my Blue Carpet (M.Coskum)
EXTD=
EXTT0=
EXTT1=
EXTT2=
EXTT3=
EXTT4=
EXTT5=
EXTT6=
EXTT7=
EXTT8=
EXTT9=
EXTT10=
EXTT11=
PLAYORDER=
